REM DIRINDEX 1\2,1\3,1\4,1\5
REM DIRNAME "folder01","folder02","folder03","folder04","folder05"
TITLE ""
FILE "P1Q_t_1439-1448.mp3" MP3
  TRACK 01 AUDIO
    TITLE "3:cjc173_5292"
    INDEX 01 00:00:00
  TRACK 02 AUDIO
    TITLE "0:"
    INDEX 01 00:01:00
  TRACK 03 AUDIO
    TITLE "4:cjc173_5293"
    INDEX 01 00:01:23
  TRACK 04 AUDIO
    TITLE "0:"
    INDEX 01 00:03:07
  TRACK 05 AUDIO
    TITLE "5:cjc173_5294"
    INDEX 01 00:03:26
  TRACK 06 AUDIO
    TITLE "0:"
    INDEX 01 00:08:31
  TRACK 07 AUDIO
    TITLE "3:cjc173_5295"
    INDEX 01 00:09:03
  TRACK 08 AUDIO
    TITLE "0:"
    INDEX 01 00:10:15
  TRACK 09 AUDIO
    TITLE "4:cjc173_5296"
    INDEX 01 00:10:34
  TRACK 10 AUDIO
    TITLE "0:"
    INDEX 01 00:11:53
  TRACK 11 AUDIO
    TITLE "5:cjc173_5297"
    INDEX 01 00:11:71
  TRACK 12 AUDIO
    TITLE "0:"
    INDEX 01 00:16:49
  TRACK 13 AUDIO
    TITLE "3:cjc173_5298"
    INDEX 01 00:17:19
  TRACK 14 AUDIO
    TITLE "0:"
    INDEX 01 00:18:51
  TRACK 15 AUDIO
    TITLE "4:cjc173_5299"
    INDEX 01 00:18:73
  TRACK 16 AUDIO
    TITLE "0:"
    INDEX 01 00:21:69
  TRACK 17 AUDIO
    TITLE "5:cjc173_5300"
    INDEX 01 00:22:14
  TRACK 18 AUDIO
    TITLE "0:"
    INDEX 01 00:27:01
  TRACK 19 AUDIO
    TITLE "3:cjc173_5301"
    INDEX 01 00:27:46
  TRACK 20 AUDIO
    TITLE "0:"
    INDEX 01 00:28:52
  TRACK 21 AUDIO
    TITLE "4:cjc173_5302"
    INDEX 01 00:28:73
  TRACK 22 AUDIO
    TITLE "0:"
    INDEX 01 00:30:68
  TRACK 23 AUDIO
    TITLE "5:cjc173_5303"
    INDEX 01 00:31:13
  TRACK 24 AUDIO
    TITLE "0:"
    INDEX 01 00:34:68
  TRACK 25 AUDIO
    TITLE "3:cjc173_5304"
    INDEX 01 00:35:38
  TRACK 26 AUDIO
    TITLE "0:"
    INDEX 01 00:36:45
  TRACK 27 AUDIO
    TITLE "4:cjc173_5305"
    INDEX 01 00:36:67
  TRACK 28 AUDIO
    TITLE "0:"
    INDEX 01 00:39:12
  TRACK 29 AUDIO
    TITLE "5:cjc173_5306"
    INDEX 01 00:39:34
  TRACK 30 AUDIO
    TITLE "0:"
    INDEX 01 00:43:04
  TRACK 31 AUDIO
    TITLE "3:cjc173_5307"
    INDEX 01 00:43:51
  TRACK 32 AUDIO
    TITLE "0:"
    INDEX 01 00:44:57
  TRACK 33 AUDIO
    TITLE "4:cjc173_5308"
    INDEX 01 00:45:07
  TRACK 34 AUDIO
    TITLE "0:"
    INDEX 01 00:46:18
  TRACK 35 AUDIO
    TITLE "5:cjc173_5309"
    INDEX 01 00:46:36
  TRACK 36 AUDIO
    TITLE "0:"
    INDEX 01 00:51:27
  TRACK 37 AUDIO
    TITLE "3:cjc173_5310"
    INDEX 01 00:51:70
  TRACK 38 AUDIO
    TITLE "0:"
    INDEX 01 00:53:20
  TRACK 39 AUDIO
    TITLE "4:cjc173_5311"
    INDEX 01 00:53:42
  TRACK 40 AUDIO
    TITLE "0:"
    INDEX 01 00:56:52
  TRACK 41 AUDIO
    TITLE "5:cjc173_5312"
    INDEX 01 00:56:73
  TRACK 42 AUDIO
    TITLE "0:"
    INDEX 01 01:01:14
  TRACK 43 AUDIO
    TITLE "3:cjc173_5313"
    INDEX 01 01:01:59
  TRACK 44 AUDIO
    TITLE "0:"
    INDEX 01 01:03:01
  TRACK 45 AUDIO
    TITLE "4:cjc173_5314"
    INDEX 01 01:03:23
  TRACK 46 AUDIO
    TITLE "0:"
    INDEX 01 01:06:54
  TRACK 47 AUDIO
    TITLE "5:cjc173_5315"
    INDEX 01 01:06:74
  TRACK 48 AUDIO
    TITLE "0:"
    INDEX 01 01:10:66
  TRACK 49 AUDIO
    TITLE "3:cjc173_5316"
    INDEX 01 01:11:36
  TRACK 50 AUDIO
    TITLE "0:"
    INDEX 01 01:12:59
  TRACK 51 AUDIO
    TITLE "4:cjc173_5317"
    INDEX 01 01:13:03
  TRACK 52 AUDIO
    TITLE "0:"
    INDEX 01 01:16:12
  TRACK 53 AUDIO
    TITLE "5:cjc173_5318"
    INDEX 01 01:16:31
  TRACK 54 AUDIO
    TITLE "0:"
    INDEX 01 01:20:52
  TRACK 55 AUDIO
    TITLE "3:cjc173_5319"
    INDEX 01 01:21:22
  TRACK 56 AUDIO
    TITLE "0:"
    INDEX 01 01:22:53
  TRACK 57 AUDIO
    TITLE "4:cjc173_5320"
    INDEX 01 01:22:73
  TRACK 58 AUDIO
    TITLE "0:"
    INDEX 01 01:25:28
  TRACK 59 AUDIO
    TITLE "5:cjc173_5321"
    INDEX 01 01:25:48
  TRACK 60 AUDIO
    TITLE "0:"
    INDEX 01 01:29:59
